{
  "accessors": [
    {
      "bufferView": 2,
      "componentType": 5126,
      "count": 30214,
      "max": [
        7.194344520568848,
        7.509350776672363,
        7.006134033203125
      ],
      "min": [
        -7.4574503898620605,
        -6.965400218963623,
        -0.055277999490499496
      ],
      "type": "VEC3"
    },
    {
      "bufferView": 2,
      "byteOffset": 362568,
      "componentType": 5126,
      "count": 30214,
      "max": [
        0.999873161315918,
        0.9998295903205872,
        0.9999979734420776
      ],
      "min": [
        -0.9995664954185486,
        -0.9994578957557678,
        -0.8066397905349731
      ],
      "type": "VEC3"
    },
    {
      "bufferView": 3,
      "componentType": 5126,
      "count": 30214,
      "max": [
        0.9998661875724792,
        0.999940812587738,
        0.5424444675445557,
        -1.0
      ],
      "min": [
        -0.9999980926513672,
        -0.9999969005584717,
        -0.5590468645095825,
        -1.0
      ],
      "type": "VEC4"
    },
    {
      "bufferView": 1,
      "componentType": 5126,
      "count": 30214,
      "max": [
        0.5000050067901611,
        0.9900000095367432
      ],
      "min": [
        -0.5000050067901611,
        0.0
      ],
      "type": "VEC2"
    },
    {
      "bufferView": 1,
      "byteOffset": 241712,
      "componentType": 5126,
      "count": 30214,
      "max": [
        0.5000050067901611,
        0.9900000095367432
      ],
      "min": [
        -0.5000050067901611,
        0.0
      ],
      "type": "VEC2"
    },
    {
      "bufferView": 0,
      "componentType": 5125,
      "count": 154044,
      "type": "SCALAR"
    }
  ],
  "asset": {
    "extras": {
      "author": "Grand Dog Studio (https://sketchfab.com/GrandDogStudio)",
      "license": "CC-BY-4.0 (http://creativecommons.org/licenses/by/4.0/)",
      "source": "https://sketchfab.com/3d-models/3d-fern-01-165f3870237f488885faf406d9deddc0",
      "title": "3D Fern - 01"
    },
    "generator": "Sketchfab-12.65.0",
    "version": "2.0"
  },
  "bufferViews": [
    {
      "buffer": 0,
      "byteLength": 616176,
      "name": "floatBufferViews",
      "target": 34963
    },
    {
      "buffer": 0,
      "byteLength": 483424,
      "byteOffset": 616176,
      "byteStride": 8,
      "name": "floatBufferViews",
      "target": 34962
    },
    {
      "buffer": 0,
      "byteLength": 725136,
      "byteOffset": 1099600,
      "byteStride": 12,
      "name": "floatBufferViews",
      "target": 34962
    },
    {
      "buffer": 0,
      "byteLength": 483424,
      "byteOffset": 1824736,
      "byteStride": 16,
      "name": "floatBufferViews",
      "target": 34962
    }
  ],
  "buffers": [
    {
      "byteLength": 2308160,
      "uri": "scene.bin"
    }
  ],
  "images": [
    {
      "uri": "textures/Fern_baseColor.png"
    },
    {
      "uri": "textures/Fern_metallicRoughness.png"
    },
    {
      "uri": "textures/Fern_normal.png"
    }
  ],
  "materials": [
    {
      "alphaMode": "BLEND",
      "doubleSided": true,
      "name": "Fern",
      "normalTexture": {
        "index": 2,
        "scale": 0.2159703470494451
      },
      "pbrMetallicRoughness": {
        "baseColorTexture": {
          "index": 0
        },
        "metallicFactor": 0.0,
        "metallicRoughnessTexture": {
          "index": 1
        },
        "roughnessFactor": 0.40386139529360326
      }
    }
  ],
  "meshes": [
    {
      "name": "Fern_Fern_0",
      "primitives": [
        {
          "attributes": {
            "NORMAL": 1,
            "POSITION": 0,
            "TANGENT": 2,
            "TEXCOORD_0": 3,
            "TEXCOORD_1": 4
          },
          "indices": 5,
          "material": 0,
          "mode": 4
        }
      ]
    }
  ],
  "nodes": [
    {
      "children": [
        1
      ],
      "matrix": [
        1.0,
        0.0,
        0.0,
        0.0,
        0.0,
        2.220446049250313e-16,
        -1.0,
        0.0,
        0.0,
        1.0,
        2.220446049250313e-16,
        0.0,
        0.0,
        0.0,
        0.0,
        1.0
      ],
      "name": "Sketchfab_model"
    },
    {
      "children": [
        2
      ],
      "matrix": [
        0.009999999776482582,
        0.0,
        0.0,
        0.0,
        0.0,
        0.0,
        0.009999999776482582,
        0.0,
        0.0,
        -0.009999999776482582,
        0.0,
        0.0,
        0.0,
        0.0,
        0.0,
        1.0
      ],
      "name": "4bfc57be0261400ba02fcb3f337759f4.fbx"
    },
    {
      "children": [
        3
      ],
      "name": "RootNode"
    },
    {
      "children": [
        4
      ],
      "matrix": [
        100.0,
        0.0,
        0.0,
        0.0,
        0.0,
        -1.629206793918314e-05,
        -99.99999999999868,
        0.0,
        0.0,
        99.99999999999868,
        -1.629206793918314e-05,
        0.0,
        0.0,
        0.0,
        0.0,
        1.0
      ],
      "name": "Fern"
    },
    {
      "mesh": 0,
      "name": "Fern_Fern_0"
    }
  ],
  "samplers": [
    {
      "magFilter": 9729,
      "minFilter": 9987,
      "wrapS": 10497,
      "wrapT": 10497
    }
  ],
  "scene": 0,
  "scenes": [
    {
      "name": "Sketchfab_Scene",
      "nodes": [
        0
      ]
    }
  ],
  "textures": [
    {
      "sampler": 0,
      "source": 0
    },
    {
      "sampler": 0,
      "source": 1
    },
    {
      "sampler": 0,
      "source": 2
    }
  ]
}
